<svg xmlns="http://www.w3.org/2000/svg" xmlns:xlink="http://www.w3.org/1999/xlink" width="26" height="2064" viewBox="0 0 26 2064"><svg width="24" height="24" viewBox="0 0 24 24" id="ic_arrow_back_24px" y="0"><path d="M20 11H7.83l5.59-5.59L12 4l-8 8 8 8 1.41-1.41L7.83 13H20v-2z"/></svg><svg width="24" height="24" viewBox="0 0 24 24" id="ic_arrow_drop_down_24px" y="24"><path d="M7 10l5 5 5-5z"/></svg><svg width="24" height="24" viewBox="0 0 24 24" id="ic_arrow_drop_down_circle_24px" y="48"><path d="M12 2C6.48 2 2 6.48 2 12s4.48 10 10 10 10-4.48 10-10S17.52 2 12 2zm0 12l-4-4h8l-4 4z"/></svg><svg width="24" height="24" viewBox="0 0 24 24" id="ic_arrow_drop_up_24px" y="72"><path d="M7 14l5-5 5 5z"/></svg><svg width="24" height="24" viewBox="0 0 24 24" id="ic_arrow_forward_24px" y="96"><path d="M12 4l-1.41 1.41L16.17 11H4v2h12.17l-5.58 5.59L12 20l8-8z"/></svg><svg width="24" height="24" viewBox="0 0 24 24" id="ic_check_24px" y="120"><path d="M9 16.17L4.83 12l-1.42 1.41L9 19 21 7l-1.41-1.41z"/></svg><svg width="24" height="24" viewBox="0 0 24 24" id="ic_chevron_left_24px" y="144"><path d="M15.41 7.41L14 6l-6 6 6 6 1.41-1.41L10.83 12z"/></svg><svg width="24" height="24" viewBox="0 0 24 24" id="ic_chevron_right_24px" y="168"><path d="M10 6L8.59 7.41 13.17 12l-4.58 4.59L10 18l6-6z"/></svg><svg width="24" height="24" viewBox="0 0 24 24" id="ic_unfold_less_24px" y="192"><path d="M7.41 18.59L8.83 20 12 16.83 15.17 20l1.41-1.41L12 14l-4.59 4.59zm9.18-13.18L15.17 4 12 7.17 8.83 4 7.41 5.41 12 10l4.59-4.59z"/></svg><svg width="24" height="24" viewBox="0 0 24 24" id="ic_unfold_more_24px" y="216"><path d="M12 5.83L15.17 9l1.41-1.41L12 3 7.41 7.59 8.83 9 12 5.83zm0 12.34L8.83 15l-1.41 1.41L12 21l4.59-4.59L15.17 15 12 18.17z"/></svg><svg width="24" height="24" viewBox="0 0 24 24" id="ic_close_24px" y="240"><path d="M19 6.41L17.59 5 12 10.59 6.41 5 5 6.41 10.59 12 5 17.59 6.41 19 12 13.41 17.59 19 19 17.59 13.41 12z"/></svg><svg width="24" height="24" viewBox="0 0 24 24" id="ic_expand_less_24px" y="264"><path d="M12 8l-6 6 1.41 1.41L12 10.83l4.59 4.58L18 14z"/></svg><svg width="24" height="24" viewBox="0 0 24 24" id="ic_expand_more_24px" y="288"><path d="M16.59 8.59L12 13.17 7.41 8.59 6 10l6 6 6-6z"/></svg><svg width="24" height="24" viewBox="0 0 24 24" id="ic_fullscreen_24px" y="312"><path d="M7 14H5v5h5v-2H7v-3zm-2-4h2V7h3V5H5v5zm12 7h-3v2h5v-5h-2v3zM14 5v2h3v3h2V5h-5z"/></svg><svg width="24" height="24" viewBox="0 0 24 24" id="ic_fullscreen_exit_24px" y="336"><path d="M5 16h3v3h2v-5H5v2zm3-8H5v2h5V5H8v3zm6 11h2v-3h3v-2h-5v5zm2-11V5h-2v5h5V8h-3z"/></svg><svg width="24" height="24" viewBox="0 0 24 24" id="ic_menu_24px" y="360"><path d="M3 18h18v-2H3v2zm0-5h18v-2H3v2zm0-7v2h18V6H3z"/></svg><svg width="24" height="24" viewBox="0 0 24 24" id="ic_more_horiz_24px" y="384"><path d="M6 10c-1.1 0-2 .9-2 2s.9 2 2 2 2-.9 2-2-.9-2-2-2zm12 0c-1.1 0-2 .9-2 2s.9 2 2 2 2-.9 2-2-.9-2-2-2zm-6 0c-1.1 0-2 .9-2 2s.9 2 2 2 2-.9 2-2-.9-2-2-2z"/></svg><svg width="24" height="24" viewBox="0 0 24 24" id="ic_more_vert_24px" y="408"><path d="M12 8c1.1 0 2-.9 2-2s-.9-2-2-2-2 .9-2 2 .9 2 2 2zm0 2c-1.1 0-2 .9-2 2s.9 2 2 2 2-.9 2-2-.9-2-2-2zm0 6c-1.1 0-2 .9-2 2s.9 2 2 2 2-.9 2-2-.9-2-2-2z"/></svg><svg width="24" height="24" viewBox="0 0 24 24" id="ic_refresh_24px" y="432"><path d="M17.65 6.35C16.2 4.9 14.21 4 12 4c-4.42 0-7.99 3.58-7.99 8s3.57 8 7.99 8c3.73 0 6.84-2.55 7.73-6h-2.08c-.82 2.33-3.04 4-5.65 4-3.31 0-6-2.69-6-6s2.69-6 6-6c1.66 0 3.14.69 4.22 1.78L13 11h7V4l-2.35 2.35z"/></svg><svg width="24" height="24" viewBox="0 0 24 24" id="ic_qrcode_24px" y="456"><path d="M7.9 16.1v1.6h-1.6v-1.6h1.6zM7.9 6.3v1.6h-1.6v-1.6h1.6zM17.7 6.3v1.6h-1.6v-1.6h1.6zM4.6 19.4h4.9v-4.9h-4.9c0 0 0 4.9 0 4.9zM4.6 9.6h4.9v-5h-4.9c0 0 0 5 0 5zM14.5 9.6h4.9v-5h-4.9v5zM11.2 12.8v8.2h-8.2v-8.2h8.2zM17.7 19.4v1.6h-1.6v-1.6h1.6zM21 19.4v1.6h-1.6v-1.6h1.6zM21 12.8v4.9h-4.9v-1.6h-1.6v4.9h-1.6v-8.2h4.9v1.6h1.6v-1.6h1.6zM11.2 3v8.2h-8.2v-8.2h8.2zM21 3v8.2h-8.2v-8.2h8.2z"></path></svg><svg width="24" height="24" viewBox="0 0 24 24" id="ic_add_24px" y="480"><path d="M19 13h-6v6h-2v-6H5v-2h6V5h2v6h6v2z"/></svg><svg width="24" height="24" viewBox="0 0 24 24" id="ic_block_24px" y="504"><path d="M12 2C6.48 2 2 6.48 2 12s4.48 10 10 10 10-4.48 10-10S17.52 2 12 2zM4 12c0-4.42 3.58-8 8-8 1.85 0 3.55.63 4.9 1.69L5.69 16.9C4.63 15.55 4 13.85 4 12zm8 8c-1.85 0-3.55-.63-4.9-1.69L18.31 7.1C19.37 8.45 20 10.15 20 12c0 4.42-3.58 8-8 8z"/></svg><svg width="24" height="24" viewBox="0 0 24 24" id="ic_clear_24px" y="528"><path d="M19 6.41L17.59 5 12 10.59 6.41 5 5 6.41 10.59 12 5 17.59 6.41 19 12 13.41 17.59 19 19 17.59 13.41 12z"/></svg><svg width="24" height="24" viewBox="0 0 24 24" id="ic_content_copy_24px" y="552"><path d="M16 1H4c-1.1 0-2 .9-2 2v14h2V3h12V1zm3 4H8c-1.1 0-2 .9-2 2v14c0 1.1.9 2 2 2h11c1.1 0 2-.9 2-2V7c0-1.1-.9-2-2-2zm0 16H8V7h11v14z"/></svg><svg width="24" height="24" viewBox="0 0 24 24" id="ic_content_paste_24px" y="576"><path d="M19 2h-4.18C14.4.84 13.3 0 12 0c-1.3 0-2.4.84-2.82 2H5c-1.1 0-2 .9-2 2v16c0 1.1.9 2 2 2h14c1.1 0 2-.9 2-2V4c0-1.1-.9-2-2-2zm-7 0c.55 0 1 .45 1 1s-.45 1-1 1-1-.45-1-1 .45-1 1-1zm7 18H5V4h2v3h10V4h2v16z"/></svg><svg width="24" height="24" viewBox="0 0 24 24" id="ic_create_24px" y="600"><path d="M3 17.25V21h3.75L17.81 9.94l-3.75-3.75L3 17.25zM20.71 7.04c.39-.39.39-1.02 0-1.41l-2.34-2.34c-.39-.39-1.02-.39-1.41 0l-1.83 1.83 3.75 3.75 1.83-1.83z"/></svg><svg width="24" height="24" viewBox="0 0 24 24" id="ic_flag_24px" y="624"><path d="M14.4 6L14 4H5v17h2v-7h5.6l.4 2h7V6z"/></svg><svg width="24" height="24" viewBox="0 0 24 24" id="ic_link_24px" y="648"><path d="M3.9 12c0-1.71 1.39-3.1 3.1-3.1h4V7H7c-2.76 0-5 2.24-5 5s2.24 5 5 5h4v-1.9H7c-1.71 0-3.1-1.39-3.1-3.1zM8 13h8v-2H8v2zm9-6h-4v1.9h4c1.71 0 3.1 1.39 3.1 3.1s-1.39 3.1-3.1 3.1h-4V17h4c2.76 0 5-2.24 5-5s-2.24-5-5-5z"/></svg><svg width="24" height="24" viewBox="0 0 24 24" id="ic_remove_24px" y="672"><path d="M19 13H5v-2h14v2z"/></svg><svg width="24" height="24" viewBox="0 0 24 24" id="ic_reply_24px" y="696"><path d="M10 9V5l-7 7 7 7v-4.1c5 0 8.5 1.6 11 5.1-1-5-4-10-11-11z"/></svg><svg width="24" height="24" viewBox="0 0 24 24" id="ic_reply_all_24px" y="720"><path d="M7 8V5l-7 7 7 7v-3l-4-4 4-4zm6 1V5l-7 7 7 7v-4.1c5 0 8.5 1.6 11 5.1-1-5-4-10-11-11z"/></svg><svg width="24" height="24" viewBox="0 0 24 24" id="ic_send_24px" y="744"><path d="M2.01 21L23 12 2.01 3 2 10l15 2-15 2z"/></svg><svg width="24" height="24" viewBox="0 0 24 24" id="ic_sort_24px" y="768"><path d="M3 18h6v-2H3v2zM3 6v2h18V6H3zm0 7h12v-2H3v2z"/></svg><svg width="24" height="24" viewBox="0 0 24 24" id="ic_redo_24px" y="792"><path d="M18.4 10.6C16.55 8.99 14.15 8 11.5 8c-4.65 0-8.58 3.03-9.96 7.22L3.9 16c1.05-3.19 4.05-5.5 7.6-5.5 1.95 0 3.73.72 5.12 1.88L13 16h9V7l-3.6 3.6z"/></svg><svg width="24" height="24" viewBox="0 0 24 24" id="ic_undo_24px" y="816"><path d="M12.5 8c-2.65 0-5.05.99-6.9 2.6L2 7v9h9l-3.62-3.62c1.39-1.16 3.16-1.88 5.12-1.88 3.54 0 6.55 2.31 7.6 5.5l2.37-.78C21.08 11.03 17.15 8 12.5 8z"/></svg><svg width="24" height="24" viewBox="0 0 24 24" id="ic_delete_24px" y="840"><path d="M6 19c0 1.1.9 2 2 2h8c1.1 0 2-.9 2-2V7H6v12zM19 4h-3.5l-1-1h-5l-1 1H5v2h14V4z"/></svg></svg>